<svg id="Laag_2" data-name="Laag 2" xmlns="http://www.w3.org/2000/svg" viewBox="0 0 500 500"><defs><style>.cls-1{fill:#222324;}.cls-2{fill:#f9f9f9;}</style></defs><g id="bg"><circle class="cls-1" cx="250" cy="207.73" r="125.14"/></g><g id="ei"><path class="cls-2" d="M248.7,138.61C215,138.61,178.21,230,215,261.71c19.15,19.15,50.31,21.19,71.51,0C321.74,224.93,282.41,138.61,248.7,138.61Zm-27.61,44.47q-1.14,2.1-2.15,4.27a74.87,74.87,0,0,0-6.51,34c.11,3.3-5,3.28-5.1,0a80.34,80.34,0,0,1,6.85-35.82q1.15-2.55,2.49-5C218.31,177.68,222.9,180.24,221.09,183.08ZM240.8,158.8a98.72,98.72,0,0,0-15.63,17.63c-1.24,1.76-5.84-.28-4.45-2.56a102.36,102.36,0,0,1,16.47-18.68C239.63,153,243.25,156.6,240.8,158.8Z"/></g><path d="M8.85,402.93v-38h22.3l-.78,4H13.94v12.15H28.58l-.78,4H13.94v13.81H31.56l-.78,4Z"/><path d="M86.09,401a34.48,34.48,0,0,1-6.8,1.94,35.71,35.71,0,0,1-5.76.53,22.75,22.75,0,0,1-7.89-1.31,17.16,17.16,0,0,1-6.08-3.74,16.53,16.53,0,0,1-3.91-5.86,20.46,20.46,0,0,1-1.38-7.67,21.86,21.86,0,0,1,.78-6,20.06,20.06,0,0,1,2.18-5,18.66,18.66,0,0,1,3.36-4,20.17,20.17,0,0,1,4.31-3,22.31,22.31,0,0,1,5-1.85,24.11,24.11,0,0,1,5.53-.63,34.52,34.52,0,0,1,9.76,1.5l-.85,4.47-.52.26a23,23,0,0,0-9.48-2.21,14.64,14.64,0,0,0-6,1.21,14.1,14.1,0,0,0-4.68,3.29,15,15,0,0,0-3,4.91,16.85,16.85,0,0,0-1.06,6,17.78,17.78,0,0,0,1,5.85,15.2,15.2,0,0,0,2.87,5,13.93,13.93,0,0,0,4.64,3.47,14.65,14.65,0,0,0,6.3,1.3,22.17,22.17,0,0,0,3.39-.29,27,27,0,0,0,3.78-.88V385.12h4.56Z"/><path d="M142.63,401a34.87,34.87,0,0,1-6.8,1.94,35.92,35.92,0,0,1-5.77.53,22.75,22.75,0,0,1-7.89-1.31,17.16,17.16,0,0,1-6.08-3.74,16.53,16.53,0,0,1-3.91-5.86,20.46,20.46,0,0,1-1.38-7.67,21.86,21.86,0,0,1,.78-6,20.06,20.06,0,0,1,2.18-5,18.66,18.66,0,0,1,3.36-4,20.17,20.17,0,0,1,4.31-3,22.21,22.21,0,0,1,5-1.85,24,24,0,0,1,5.52-.63,34.52,34.52,0,0,1,9.76,1.5l-.85,4.47-.52.26a23,23,0,0,0-9.48-2.21,14.64,14.64,0,0,0-6,1.21,14.1,14.1,0,0,0-4.68,3.29,15,15,0,0,0-3,4.91,16.85,16.85,0,0,0-1.06,6,17.78,17.78,0,0,0,1,5.85,15.2,15.2,0,0,0,2.87,5,13.93,13.93,0,0,0,4.64,3.47,14.65,14.65,0,0,0,6.3,1.3,22.17,22.17,0,0,0,3.39-.29,27,27,0,0,0,3.78-.88V385.12h4.57Z"/><path d="M197.89,399.27a13.7,13.7,0,0,1-3.17,2.09,20.37,20.37,0,0,1-3.45,1.29,21.43,21.43,0,0,1-3.34.63,27.8,27.8,0,0,1-2.82.17,18.22,18.22,0,0,1-7-1.34,16.82,16.82,0,0,1-5.65-3.77,17.5,17.5,0,0,1-3.76-5.88,20.62,20.62,0,0,1-1.37-7.67,21.61,21.61,0,0,1,.78-5.92,19.85,19.85,0,0,1,2.18-5,19.06,19.06,0,0,1,3.33-4,19.43,19.43,0,0,1,4.23-3,21.72,21.72,0,0,1,4.9-1.85,22.51,22.51,0,0,1,5.32-.63,33.65,33.65,0,0,1,4.31.32,35,35,0,0,1,5.4,1.18l-.88,4.52-.52.26a23.83,23.83,0,0,0-5.31-1.78,22.19,22.19,0,0,0-4.16-.48,13.48,13.48,0,0,0-5.74,1.21,13.86,13.86,0,0,0-4.52,3.29,15.51,15.51,0,0,0-3,4.87,16.36,16.36,0,0,0-1.06,5.92,18.11,18.11,0,0,0,1,5.82,15,15,0,0,0,2.79,5,13.93,13.93,0,0,0,4.54,3.48,14.09,14.09,0,0,0,6.2,1.31c.68,0,1.42-.05,2.24-.13a19.66,19.66,0,0,0,2.59-.48,26,26,0,0,0,2.88-.94,19.41,19.41,0,0,0,3.07-1.52Z"/><path d="M222.07,402.93v-38h22.3l-.78,4H227.16v12.15H241.8l-.78,4H227.16v13.81h17.63l-.78,4Z"/><path d="M269.31,402.93v-38h5.09v34h15.73l-.78,4Z"/><path d="M313.33,402.93v-38h5.09v34h15.73l-.78,4Z"/><path d="M357.35,402.93v-38h22.3l-.78,4H362.44v12.15h14.64l-.78,4H362.44v13.81h17.63l-.78,4Z"/><path d="M404.33,402.93v-38h7.4l17.94,25.95,2.59,4.67h.52l-.36-5.29V364.91h4.64v38h-4.31L411.47,372.3l-2.34-4.51h-.51l.36,5.29v29.85Z"/><path d="M477,402.93h-5.09v-34H459.31l.78-4h30.05l-.78,4H477Z"/></svg>