<svg id="Laag_2" data-name="Laag 2" xmlns="http://www.w3.org/2000/svg" viewBox="0 0 500 500"><defs><style>.cls-1{fill:#222324;}.cls-2{fill:#f9f9f9;}</style></defs><circle id="bg" class="cls-1" cx="250" cy="250" r="245"/><path id="ei" class="cls-2" d="M247.45,114.68c-66,0-138,179-66,241,37.5,37.5,98.5,41.5,140,0C390.45,283.68,313.45,114.68,247.45,114.68Zm-54,87.07q-2.24,4.09-4.22,8.35c-9.67,20.85-13.47,43.7-12.73,66.58.21,6.45-9.79,6.42-10,0-.78-24.17,3.46-48.06,13.42-70.14,1.5-3.33,3.14-6.59,4.88-9.79C188,191.18,197,196.18,193.4,201.75ZM232,154.21a193.29,193.29,0,0,0-30.61,34.52c-2.43,3.45-11.43-.55-8.7-5a200.32,200.32,0,0,1,32.24-36.57C229.69,142.84,236.78,149.9,232,154.21Z"/></svg>